<svg xmlns="http://www.w3.org/2000/svg" xmlns:xlink="http://www.w3.org/1999/xlink" width="1920" zoomAndPan="magnify" viewBox="0 0 1440 809.999993" height="1080" preserveAspectRatio="xMidYMid meet" version="1.0"><defs><clipPath id="75cfb758fc"><path d="M 516.375 243 L 840.375 243 L 840.375 567 L 516.375 567 Z M 516.375 243 " clip-rule="nonzero"/></clipPath></defs><g clip-path="url(#75cfb758fc)"><path stroke-linecap="butt" transform="matrix(5.175719, 0, 0, 5.175719, 352.305634, 157.859426)" fill="none" stroke-linejoin="miter" d="M 65.466271 18.262098 C 83.35328 35.897783 83.35328 59.575051 65.466271 77.209227 M 40.013132 66.452116 C 53.767261 56.639167 72.231636 56.639167 85.987274 66.452116 M 61.047349 17.979076 C 43.03581 35.736272 43.03581 59.57807 61.047349 77.335267 M 62.847371 18.01002 C 46.45321 18.093794 33.231163 31.451692 33.315692 47.845853 C 33.398712 64.242278 46.758119 77.462061 63.153035 77.379041 C 79.545687 77.293757 92.769243 63.937369 92.683959 47.541698 C 92.600939 31.266784 79.427949 18.093794 63.153035 18.01002 L 62.846616 18.01002 Z M 62.999826 18.01002 L 62.999826 77.379041 M 92.684714 47.694153 L 33.314938 47.694153 M 40.013132 29.834314 C 53.767261 39.645753 72.231636 39.645753 85.987274 29.834314 " stroke="#000000" stroke-width="3.045" stroke-opacity="1" stroke-miterlimit="4"/></g></svg>