<?xml version="1.0" encoding="iso-8859-1"?>
<!-- Uploaded to: SVG Repo, www.svgrepo.com, Generator: SVG Repo Mixer Tools -->
<svg version="1.1" id="Layer_1" xmlns="http://www.w3.org/2000/svg" xmlns:xlink="http://www.w3.org/1999/xlink" 
	 viewBox="0 0 512 512" xml:space="preserve">
<path style="fill:#CCCCCC;" d="M433.096,462.136L76.864,256L433.096,49.864V462.136z M108.8,256l308.296,178.4V77.6L108.8,256z"/>
<rect x="39.888" y="214.456" style="fill:#FFFFFF;" width="83.096" height="83.096"/>
<path style="fill:#E21B1B;" d="M114.984,222.448v67.096H47.888v-67.096H114.984 M130.984,206.448H31.888v99.104h99.096
	C130.984,305.552,130.984,206.448,130.984,206.448z"/>
<rect x="389.016" y="8" style="fill:#FFFFFF;" width="83.096" height="83.096"/>
<path style="fill:#E21B1B;" d="M464.112,16v67.096h-67.096V16H464.112 M480.112,0h-99.096v99.096h99.096V0z"/>
<rect x="389.016" y="420.904" style="fill:#FFFFFF;" width="83.096" height="83.096"/>
<path style="fill:#E21B1B;" d="M464.112,428.904V496h-67.096v-67.096H464.112 M480.112,412.904h-99.096V512h99.096V412.904z"/>
</svg>